<?xml version="1.0" encoding="utf-8"?>
<!-- Generator: Adobe Illustrator 22.0.1, SVG Export Plug-In . SVG Version: 6.00 Build 0)  -->
<svg version="1.1" id="Capa_1" xmlns="http://www.w3.org/2000/svg" xmlns:xlink="http://www.w3.org/1999/xlink" x="0px" y="0px"
	 viewBox="0 0 206.7 77.4" style="enable-background:new 0 0 206.7 77.4;" xml:space="preserve">
<style type="text/css">
	.st0{fill:#FFFFFF;}
	.st1{fill:#CD2E1B;}
</style>
<title>logo</title>
<path class="st0" d="M121.3,26.7c-3.7-1.9-7.1-2.4-15.8-2.4H87.2v1.3h3.8V52h-3.8v1.3h18.4c8.6,0,13.6-1.1,17.7-4
	c3.5-2.3,5.5-6.3,5.4-10.5C128.8,33.7,125.9,28.9,121.3,26.7z M115.1,40.8c0,8.9-2,11.2-9.4,11.2h-2V25.5h1.8c7.5,0,9.6,2.1,9.6,9.7
	L115.1,40.8z"/>
<path class="st0" d="M150.4,52h-2.6V25.5h5.6v-1.3h-22.1v1.3h3.9V52h-3.9v1.3h34.5l0.8-9.9h-1.9C162.7,49.5,158.6,52,150.4,52z"/>
<path class="st0" d="M201.6,25.5c-2.6-1-4.8-1.2-10.8-1.2h-22.2v1.3h3.9V52h-3.9v1.3h22.2V52h-5.7V40h6.3c4.4,0,8.3-0.4,10.3-1.2
	c3.2-1.2,5.1-3.6,5.1-6.6S204.8,26.7,201.6,25.5z M187.9,38.7h-2.9V25.5h2.9c4.3,0,5.5,1.4,5.5,6.6S192.2,38.7,187.9,38.7z"/>
<path class="st1" d="M66.3,24.2L66.3,24.2L66.3,24.2H51.7v43.5h-6.5V0H19.4v25c-7.5-2.7-15.9,1.2-18.6,8.7S2,49.6,9.6,52.3
	c1.6,0.6,3.3,0.9,4.9,0.9h14.6V9.7h6.5v67.7h25.8v-25c7.5,2.7,15.9-1.2,18.6-8.8c2.7-7.5-1.2-15.9-8.8-18.6
	C69.6,24.5,67.9,24.2,66.3,24.2L66.3,24.2z M9.7,38.7c0-2.7,2.2-5,4.9-5c2.3,0,4.4,1.6,4.9,3.8v2.3c-0.6,2.7-3.2,4.3-5.9,3.7
	C11.3,43.1,9.7,41.1,9.7,38.7z M66.3,43.7c-2.5,0-4.5-1.8-4.9-4.2V38c0.4-2.7,2.9-4.6,5.6-4.2s4.6,2.9,4.2,5.6
	C70.8,41.8,68.7,43.6,66.3,43.7L66.3,43.7z"/>
</svg>
